%TF.GenerationSoftware,KiCad,Pcbnew,10.0.1*%
%TF.CreationDate,2026-05-17T00:50:37+05:30*%
%TF.ProjectId,keyboard,6b657962-6f61-4726-942e-6b696361645f,rev?*%
%TF.SameCoordinates,Original*%
%TF.FileFunction,Soldermask,Top*%
%TF.FilePolarity,Negative*%
%FSLAX46Y46*%
G04 Gerber Fmt 4.6, Leading zero omitted, Abs format (unit mm)*
G04 Created by KiCad (PCBNEW 10.0.1) date 2026-05-17 00:50:37*
%MOMM*%
%LPD*%
G01*
G04 APERTURE LIST*
G04 Aperture macros list*
%AMRoundRect*
0 Rectangle with rounded corners*
0 $1 Rounding radius*
0 $2 $3 $4 $5 $6 $7 $8 $9 X,Y pos of 4 corners*
0 Add a 4 corners polygon primitive as box body*
4,1,4,$2,$3,$4,$5,$6,$7,$8,$9,$2,$3,0*
0 Add four circle primitives for the rounded corners*
1,1,$1+$1,$2,$3*
1,1,$1+$1,$4,$5*
1,1,$1+$1,$6,$7*
1,1,$1+$1,$8,$9*
0 Add four rect primitives between the rounded corners*
20,1,$1+$1,$2,$3,$4,$5,0*
20,1,$1+$1,$4,$5,$6,$7,0*
20,1,$1+$1,$6,$7,$8,$9,0*
20,1,$1+$1,$8,$9,$2,$3,0*%
G04 Aperture macros list end*
%ADD10C,1.700000*%
%ADD11C,4.000000*%
%ADD12C,2.200000*%
%ADD13RoundRect,0.102000X-0.754000X-0.754000X0.754000X-0.754000X0.754000X0.754000X-0.754000X0.754000X0*%
%ADD14R,2.000000X2.000000*%
%ADD15C,2.000000*%
%ADD16R,3.200000X2.000000*%
%ADD17RoundRect,0.170000X-0.680000X-0.680000X0.680000X-0.680000X0.680000X0.680000X-0.680000X0.680000X0*%
%ADD18RoundRect,0.250000X0.550000X-0.550000X0.550000X0.550000X-0.550000X0.550000X-0.550000X-0.550000X0*%
%ADD19C,1.600000*%
G04 APERTURE END LIST*
D10*
%TO.C,SW70*%
X316230000Y-119380000D03*
D11*
X321310000Y-119380000D03*
D10*
X326390000Y-119380000D03*
D12*
X323850000Y-114300000D03*
X317500000Y-116840000D03*
%TD*%
D10*
%TO.C,SW50*%
X159067500Y-100330000D03*
D11*
X164147500Y-100330000D03*
D10*
X169227500Y-100330000D03*
D12*
X166687500Y-95250000D03*
X160337500Y-97790000D03*
%TD*%
D10*
%TO.C,SW17*%
X68580000Y-62230000D03*
D11*
X73660000Y-62230000D03*
D10*
X78740000Y-62230000D03*
D12*
X76200000Y-57150000D03*
X69850000Y-59690000D03*
%TD*%
D13*
%TO.C,U1*%
X353280000Y-48920000D03*
X353280000Y-46380000D03*
X353280000Y-51460000D03*
X353280000Y-56540000D03*
X353280000Y-43840000D03*
X353280000Y-69240000D03*
X353280000Y-81940000D03*
X335500000Y-43840000D03*
X335500000Y-56540000D03*
X335500000Y-69240000D03*
X335500000Y-81940000D03*
X335500000Y-38760000D03*
X335500000Y-41300000D03*
X335500000Y-46380000D03*
X335500000Y-48920000D03*
X335500000Y-51460000D03*
X335500000Y-54000000D03*
X335500000Y-59080000D03*
X335500000Y-61620000D03*
X335500000Y-64160000D03*
X335500000Y-66700000D03*
X335500000Y-71780000D03*
X335500000Y-74320000D03*
X335500000Y-76860000D03*
X335500000Y-79400000D03*
X335500000Y-84480000D03*
X335500000Y-87020000D03*
X353280000Y-87020000D03*
X353280000Y-84480000D03*
X353280000Y-79400000D03*
X353280000Y-76860000D03*
X353280000Y-74320000D03*
X353280000Y-71780000D03*
X353280000Y-66700000D03*
X353280000Y-61620000D03*
X353280000Y-59080000D03*
X353280000Y-54000000D03*
X353280000Y-64160000D03*
X353280000Y-38760000D03*
X353280000Y-41300000D03*
%TD*%
D10*
%TO.C,SW54*%
X235267500Y-100330000D03*
D11*
X240347500Y-100330000D03*
D10*
X245427500Y-100330000D03*
D12*
X242887500Y-95250000D03*
X236537500Y-97790000D03*
%TD*%
D10*
%TO.C,SW25*%
X220980000Y-62230000D03*
D11*
X226060000Y-62230000D03*
D10*
X231140000Y-62230000D03*
D12*
X228600000Y-57150000D03*
X222250000Y-59690000D03*
%TD*%
D10*
%TO.C,SW4*%
X92392500Y-43180000D03*
D11*
X97472500Y-43180000D03*
D10*
X102552500Y-43180000D03*
D12*
X100012500Y-38100000D03*
X93662500Y-40640000D03*
%TD*%
D10*
%TO.C,SW75*%
X223361300Y-138430000D03*
D11*
X228441300Y-138430000D03*
D10*
X233521300Y-138430000D03*
D12*
X230981300Y-133350000D03*
X224631300Y-135890000D03*
%TD*%
D10*
%TO.C,SW21*%
X144780000Y-62230000D03*
D11*
X149860000Y-62230000D03*
D10*
X154940000Y-62230000D03*
D12*
X152400000Y-57150000D03*
X146050000Y-59690000D03*
%TD*%
D10*
%TO.C,SW49*%
X140017500Y-100330000D03*
D11*
X145097500Y-100330000D03*
D10*
X150177500Y-100330000D03*
D12*
X147637500Y-95250000D03*
X141287500Y-97790000D03*
%TD*%
D10*
%TO.C,SW46*%
X82867500Y-100330000D03*
D11*
X87947500Y-100330000D03*
D10*
X93027500Y-100330000D03*
D12*
X90487500Y-95250000D03*
X84137500Y-97790000D03*
%TD*%
D10*
%TO.C,SW45*%
X63817500Y-100330000D03*
D11*
X68897500Y-100330000D03*
D10*
X73977500Y-100330000D03*
D12*
X71437500Y-95250000D03*
X65087500Y-97790000D03*
%TD*%
D10*
%TO.C,SW8*%
X173355000Y-43180000D03*
D11*
X178435000Y-43180000D03*
D10*
X183515000Y-43180000D03*
D12*
X180975000Y-38100000D03*
X174625000Y-40640000D03*
%TD*%
D10*
%TO.C,SW19*%
X106680000Y-62230000D03*
D11*
X111760000Y-62230000D03*
D10*
X116840000Y-62230000D03*
D12*
X114300000Y-57150000D03*
X107950000Y-59690000D03*
%TD*%
D10*
%TO.C,SW5*%
X111442500Y-43180000D03*
D11*
X116522500Y-43180000D03*
D10*
X121602500Y-43180000D03*
D12*
X119062500Y-38100000D03*
X112712500Y-40640000D03*
%TD*%
D10*
%TO.C,SW40*%
X249555000Y-81280000D03*
D11*
X254635000Y-81280000D03*
D10*
X259715000Y-81280000D03*
D12*
X257175000Y-76200000D03*
X250825000Y-78740000D03*
%TD*%
D10*
%TO.C,SW28*%
X287655000Y-62230000D03*
D11*
X292735000Y-62230000D03*
D10*
X297815000Y-62230000D03*
D12*
X295275000Y-57150000D03*
X288925000Y-59690000D03*
%TD*%
D10*
%TO.C,SW68*%
X244792500Y-119380000D03*
D11*
X249872500Y-119380000D03*
D10*
X254952500Y-119380000D03*
D12*
X252412500Y-114300000D03*
X246062500Y-116840000D03*
%TD*%
D10*
%TO.C,SW37*%
X192405000Y-81280000D03*
D11*
X197485000Y-81280000D03*
D10*
X202565000Y-81280000D03*
D12*
X200025000Y-76200000D03*
X193675000Y-78740000D03*
%TD*%
D10*
%TO.C,SW29*%
X35242500Y-81280000D03*
D11*
X40322500Y-81280000D03*
D10*
X45402500Y-81280000D03*
D12*
X42862500Y-76200000D03*
X36512500Y-78740000D03*
%TD*%
D10*
%TO.C,SW27*%
X259080000Y-62230000D03*
D11*
X264160000Y-62230000D03*
D10*
X269240000Y-62230000D03*
D12*
X266700000Y-57150000D03*
X260350000Y-59690000D03*
%TD*%
D10*
%TO.C,SW39*%
X230505000Y-81280000D03*
D11*
X235585000Y-81280000D03*
D10*
X240665000Y-81280000D03*
D12*
X238125000Y-76200000D03*
X231775000Y-78740000D03*
%TD*%
D10*
%TO.C,SW7*%
X149542500Y-43180000D03*
D11*
X154622500Y-43180000D03*
D10*
X159702500Y-43180000D03*
D12*
X157162500Y-38100000D03*
X150812500Y-40640000D03*
%TD*%
D10*
%TO.C,SW22*%
X163830000Y-62230000D03*
D11*
X168910000Y-62230000D03*
D10*
X173990000Y-62230000D03*
D12*
X171450000Y-57150000D03*
X165100000Y-59690000D03*
%TD*%
D10*
%TO.C,SW48*%
X120967500Y-100330000D03*
D11*
X126047500Y-100330000D03*
D10*
X131127500Y-100330000D03*
D12*
X128587500Y-95250000D03*
X122237500Y-97790000D03*
%TD*%
D10*
%TO.C,SW32*%
X97155000Y-81280000D03*
D11*
X102235000Y-81280000D03*
D10*
X107315000Y-81280000D03*
D12*
X104775000Y-76200000D03*
X98425000Y-78740000D03*
%TD*%
D10*
%TO.C,SW11*%
X230505000Y-43180000D03*
D11*
X235585000Y-43180000D03*
D10*
X240665000Y-43180000D03*
D12*
X238125000Y-38100000D03*
X231775000Y-40640000D03*
%TD*%
D10*
%TO.C,SW47*%
X101917500Y-100330000D03*
D11*
X106997500Y-100330000D03*
D10*
X112077500Y-100330000D03*
D12*
X109537500Y-95250000D03*
X103187500Y-97790000D03*
%TD*%
D14*
%TO.C,RE1*%
X364000000Y-39100000D03*
D15*
X364000000Y-44100000D03*
X364000000Y-41600000D03*
D16*
X371500000Y-36000000D03*
X371500000Y-47200000D03*
D15*
X378500000Y-44100000D03*
X378500000Y-39100000D03*
%TD*%
D10*
%TO.C,SW57*%
X366000000Y-82050000D03*
D11*
X371080000Y-82050000D03*
D10*
X376160000Y-82050000D03*
D12*
X373620000Y-76970000D03*
X367270000Y-79510000D03*
%TD*%
D10*
%TO.C,SW56*%
X285273800Y-100330000D03*
D11*
X290353800Y-100330000D03*
D10*
X295433800Y-100330000D03*
D12*
X292893800Y-95250000D03*
X286543800Y-97790000D03*
%TD*%
D10*
%TO.C,SW67*%
X225742500Y-119380000D03*
D11*
X230822500Y-119380000D03*
D10*
X235902500Y-119380000D03*
D12*
X233362500Y-114300000D03*
X227012500Y-116840000D03*
%TD*%
D10*
%TO.C,SW35*%
X154305000Y-81280000D03*
D11*
X159385000Y-81280000D03*
D10*
X164465000Y-81280000D03*
D12*
X161925000Y-76200000D03*
X155575000Y-78740000D03*
%TD*%
D10*
%TO.C,SW30*%
X59055000Y-81280000D03*
D11*
X64135000Y-81280000D03*
D10*
X69215000Y-81280000D03*
D12*
X66675000Y-76200000D03*
X60325000Y-78740000D03*
%TD*%
D10*
%TO.C,SW66*%
X206692500Y-119380000D03*
D11*
X211772500Y-119380000D03*
D10*
X216852500Y-119380000D03*
D12*
X214312500Y-114300000D03*
X207962500Y-116840000D03*
%TD*%
D10*
%TO.C,SW71*%
X32861300Y-138430000D03*
D11*
X37941300Y-138430000D03*
D10*
X43021300Y-138430000D03*
D12*
X40481300Y-133350000D03*
X34131300Y-135890000D03*
%TD*%
D10*
%TO.C,SW26*%
X240030000Y-62230000D03*
D11*
X245110000Y-62230000D03*
D10*
X250190000Y-62230000D03*
D12*
X247650000Y-57150000D03*
X241300000Y-59690000D03*
%TD*%
D10*
%TO.C,SW73*%
X80486300Y-138430000D03*
D11*
X85566300Y-138430000D03*
D10*
X90646300Y-138430000D03*
D12*
X88106300Y-133350000D03*
X81756300Y-135890000D03*
%TD*%
D10*
%TO.C,SW24*%
X201930000Y-62230000D03*
D11*
X207010000Y-62230000D03*
D10*
X212090000Y-62230000D03*
D12*
X209550000Y-57150000D03*
X203200000Y-59690000D03*
%TD*%
D10*
%TO.C,SW12*%
X249555000Y-43180000D03*
D11*
X254635000Y-43180000D03*
D10*
X259715000Y-43180000D03*
D12*
X257175000Y-38100000D03*
X250825000Y-40640000D03*
%TD*%
D10*
%TO.C,SW34*%
X135255000Y-81280000D03*
D11*
X140335000Y-81280000D03*
D10*
X145415000Y-81280000D03*
D12*
X142875000Y-76200000D03*
X136525000Y-78740000D03*
%TD*%
D10*
%TO.C,SW9*%
X192405000Y-43180000D03*
D11*
X197485000Y-43180000D03*
D10*
X202565000Y-43180000D03*
D12*
X200025000Y-38100000D03*
X193675000Y-40640000D03*
%TD*%
D10*
%TO.C,SW61*%
X111442500Y-119380000D03*
D11*
X116522500Y-119380000D03*
D10*
X121602500Y-119380000D03*
D12*
X119062500Y-114300000D03*
X112712500Y-116840000D03*
%TD*%
D10*
%TO.C,SW2*%
X54292500Y-43180000D03*
D11*
X59372500Y-43180000D03*
D10*
X64452500Y-43180000D03*
D12*
X61912500Y-38100000D03*
X55562500Y-40640000D03*
%TD*%
D10*
%TO.C,SW69*%
X280511300Y-119380000D03*
D11*
X285591300Y-119380000D03*
D10*
X290671300Y-119380000D03*
D12*
X288131300Y-114300000D03*
X281781300Y-116840000D03*
%TD*%
D10*
%TO.C,SW36*%
X173355000Y-81280000D03*
D11*
X178435000Y-81280000D03*
D10*
X183515000Y-81280000D03*
D12*
X180975000Y-76200000D03*
X174625000Y-78740000D03*
%TD*%
D10*
%TO.C,SW80*%
X335280000Y-138430000D03*
D11*
X340360000Y-138430000D03*
D10*
X345440000Y-138430000D03*
D12*
X342900000Y-133350000D03*
X336550000Y-135890000D03*
%TD*%
D10*
%TO.C,SW44*%
X37623800Y-100330000D03*
D11*
X42703800Y-100330000D03*
D10*
X47783800Y-100330000D03*
D12*
X45243800Y-95250000D03*
X38893800Y-97790000D03*
%TD*%
D10*
%TO.C,SW23*%
X182880000Y-62230000D03*
D11*
X187960000Y-62230000D03*
D10*
X193040000Y-62230000D03*
D12*
X190500000Y-57150000D03*
X184150000Y-59690000D03*
%TD*%
D10*
%TO.C,SW13*%
X268605000Y-43180000D03*
D11*
X273685000Y-43180000D03*
D10*
X278765000Y-43180000D03*
D12*
X276225000Y-38100000D03*
X269875000Y-40640000D03*
%TD*%
D10*
%TO.C,SW60*%
X92392500Y-119380000D03*
D11*
X97472500Y-119380000D03*
D10*
X102552500Y-119380000D03*
D12*
X100012500Y-114300000D03*
X93662500Y-116840000D03*
%TD*%
D10*
%TO.C,SW65*%
X187642500Y-119380000D03*
D11*
X192722500Y-119380000D03*
D10*
X197802500Y-119380000D03*
D12*
X195262500Y-114300000D03*
X188912500Y-116840000D03*
%TD*%
D10*
%TO.C,SW33*%
X116205000Y-81280000D03*
D11*
X121285000Y-81280000D03*
D10*
X126365000Y-81280000D03*
D12*
X123825000Y-76200000D03*
X117475000Y-78740000D03*
%TD*%
D10*
%TO.C,SW72*%
X56673800Y-138430000D03*
D11*
X61753800Y-138430000D03*
D10*
X66833800Y-138430000D03*
D12*
X64293800Y-133350000D03*
X57943800Y-135890000D03*
%TD*%
D10*
%TO.C,SW1*%
X30480000Y-43180000D03*
D11*
X35560000Y-43180000D03*
D10*
X40640000Y-43180000D03*
D12*
X38100000Y-38100000D03*
X31750000Y-40640000D03*
%TD*%
D10*
%TO.C,SW59*%
X73342500Y-119380000D03*
D11*
X78422500Y-119380000D03*
D10*
X83502500Y-119380000D03*
D12*
X80962500Y-114300000D03*
X74612500Y-116840000D03*
%TD*%
D17*
%TO.C,U3*%
X317460000Y-64000000D03*
D10*
X320000000Y-64000000D03*
X322540000Y-64000000D03*
X325080000Y-64000000D03*
%TD*%
%TO.C,SW74*%
X151923800Y-138430000D03*
D11*
X157003800Y-138430000D03*
D10*
X162083800Y-138430000D03*
D12*
X159543800Y-133350000D03*
X153193800Y-135890000D03*
%TD*%
D10*
%TO.C,SW53*%
X216217500Y-100330000D03*
D11*
X221297500Y-100330000D03*
D10*
X226377500Y-100330000D03*
D12*
X223837500Y-95250000D03*
X217487500Y-97790000D03*
%TD*%
D10*
%TO.C,SW18*%
X87630000Y-62230000D03*
D11*
X92710000Y-62230000D03*
D10*
X97790000Y-62230000D03*
D12*
X95250000Y-57150000D03*
X88900000Y-59690000D03*
%TD*%
D10*
%TO.C,SW78*%
X297180000Y-138430000D03*
D11*
X302260000Y-138430000D03*
D10*
X307340000Y-138430000D03*
D12*
X304800000Y-133350000D03*
X298450000Y-135890000D03*
%TD*%
D10*
%TO.C,SW41*%
X268605000Y-81280000D03*
D11*
X273685000Y-81280000D03*
D10*
X278765000Y-81280000D03*
D12*
X276225000Y-76200000D03*
X269875000Y-78740000D03*
%TD*%
D10*
%TO.C,SW16*%
X49530000Y-62230000D03*
D11*
X54610000Y-62230000D03*
D10*
X59690000Y-62230000D03*
D12*
X57150000Y-57150000D03*
X50800000Y-59690000D03*
%TD*%
D10*
%TO.C,SW77*%
X270986300Y-138430000D03*
D11*
X276066300Y-138430000D03*
D10*
X281146300Y-138430000D03*
D12*
X278606300Y-133350000D03*
X272256300Y-135890000D03*
%TD*%
D10*
%TO.C,SW6*%
X130492500Y-43180000D03*
D11*
X135572500Y-43180000D03*
D10*
X140652500Y-43180000D03*
D12*
X138112500Y-38100000D03*
X131762500Y-40640000D03*
%TD*%
D10*
%TO.C,SW43*%
X366000000Y-63000000D03*
D11*
X371080000Y-63000000D03*
D10*
X376160000Y-63000000D03*
D12*
X373620000Y-57920000D03*
X367270000Y-60460000D03*
%TD*%
D10*
%TO.C,SW52*%
X197167500Y-100330000D03*
D11*
X202247500Y-100330000D03*
D10*
X207327500Y-100330000D03*
D12*
X204787500Y-95250000D03*
X198437500Y-97790000D03*
%TD*%
D10*
%TO.C,SW79*%
X316230000Y-138430000D03*
D11*
X321310000Y-138430000D03*
D10*
X326390000Y-138430000D03*
D12*
X323850000Y-133350000D03*
X317500000Y-135890000D03*
%TD*%
D10*
%TO.C,SW51*%
X178117500Y-100330000D03*
D11*
X183197500Y-100330000D03*
D10*
X188277500Y-100330000D03*
D12*
X185737500Y-95250000D03*
X179387500Y-97790000D03*
%TD*%
D10*
%TO.C,SW38*%
X211455000Y-81280000D03*
D11*
X216535000Y-81280000D03*
D10*
X221615000Y-81280000D03*
D12*
X219075000Y-76200000D03*
X212725000Y-78740000D03*
%TD*%
D10*
%TO.C,SW58*%
X42386300Y-119380000D03*
D11*
X47466300Y-119380000D03*
D10*
X52546300Y-119380000D03*
D12*
X50006300Y-114300000D03*
X43656300Y-116840000D03*
%TD*%
D10*
%TO.C,SW14*%
X297180000Y-43180000D03*
D11*
X302260000Y-43180000D03*
D10*
X307340000Y-43180000D03*
D12*
X304800000Y-38100000D03*
X298450000Y-40640000D03*
%TD*%
D10*
%TO.C,SW42*%
X292417500Y-81280000D03*
D11*
X297497500Y-81280000D03*
D10*
X302577500Y-81280000D03*
D12*
X300037500Y-76200000D03*
X293687500Y-78740000D03*
%TD*%
D10*
%TO.C,SW20*%
X125730000Y-62230000D03*
D11*
X130810000Y-62230000D03*
D10*
X135890000Y-62230000D03*
D12*
X133350000Y-57150000D03*
X127000000Y-59690000D03*
%TD*%
D10*
%TO.C,SW31*%
X78105000Y-81280000D03*
D11*
X83185000Y-81280000D03*
D10*
X88265000Y-81280000D03*
D12*
X85725000Y-76200000D03*
X79375000Y-78740000D03*
%TD*%
D10*
%TO.C,SW55*%
X254317500Y-100330000D03*
D11*
X259397500Y-100330000D03*
D10*
X264477500Y-100330000D03*
D12*
X261937500Y-95250000D03*
X255587500Y-97790000D03*
%TD*%
D10*
%TO.C,SW3*%
X73342500Y-43180000D03*
D11*
X78422500Y-43180000D03*
D10*
X83502500Y-43180000D03*
D12*
X80962500Y-38100000D03*
X74612500Y-40640000D03*
%TD*%
D10*
%TO.C,SW10*%
X211455000Y-43180000D03*
D11*
X216535000Y-43180000D03*
D10*
X221615000Y-43180000D03*
D12*
X219075000Y-38100000D03*
X212725000Y-40640000D03*
%TD*%
D10*
%TO.C,SW63*%
X149542500Y-119380000D03*
D11*
X154622500Y-119380000D03*
D10*
X159702500Y-119380000D03*
D12*
X157162500Y-114300000D03*
X150812500Y-116840000D03*
%TD*%
D10*
%TO.C,SW15*%
X30480000Y-62230000D03*
D11*
X35560000Y-62230000D03*
D10*
X40640000Y-62230000D03*
D12*
X38100000Y-57150000D03*
X31750000Y-59690000D03*
%TD*%
D10*
%TO.C,SW76*%
X247173800Y-138430000D03*
D11*
X252253800Y-138430000D03*
D10*
X257333800Y-138430000D03*
D12*
X254793800Y-133350000D03*
X248443800Y-135890000D03*
%TD*%
D10*
%TO.C,SW64*%
X168592500Y-119380000D03*
D11*
X173672500Y-119380000D03*
D10*
X178752500Y-119380000D03*
D12*
X176212500Y-114300000D03*
X169862500Y-116840000D03*
%TD*%
D10*
%TO.C,SW62*%
X130492500Y-119380000D03*
D11*
X135572500Y-119380000D03*
D10*
X140652500Y-119380000D03*
D12*
X138112500Y-114300000D03*
X131762500Y-116840000D03*
%TD*%
D18*
%TO.C,D26*%
X252730000Y-61150000D03*
D19*
X252730000Y-53530000D03*
%TD*%
D18*
%TO.C,D22*%
X176530000Y-61150000D03*
D19*
X176530000Y-53530000D03*
%TD*%
D18*
%TO.C,D51*%
X190817500Y-99250000D03*
D19*
X190817500Y-91630000D03*
%TD*%
D18*
%TO.C,D24*%
X214630000Y-61150000D03*
D19*
X214630000Y-53530000D03*
%TD*%
D18*
%TO.C,D54*%
X247967500Y-99250000D03*
D19*
X247967500Y-91630000D03*
%TD*%
D18*
%TO.C,D56*%
X297973800Y-99250000D03*
D19*
X297973800Y-91630000D03*
%TD*%
D18*
%TO.C,D19*%
X119380000Y-61150000D03*
D19*
X119380000Y-53530000D03*
%TD*%
D18*
%TO.C,D69*%
X293211300Y-118300000D03*
D19*
X293211300Y-110680000D03*
%TD*%
D18*
%TO.C,D20*%
X138430000Y-61150000D03*
D19*
X138430000Y-53530000D03*
%TD*%
D18*
%TO.C,D66*%
X219392500Y-118300000D03*
D19*
X219392500Y-110680000D03*
%TD*%
D18*
%TO.C,D52*%
X209867500Y-99250000D03*
D19*
X209867500Y-91630000D03*
%TD*%
D18*
%TO.C,D15*%
X43180000Y-61150000D03*
D19*
X43180000Y-53530000D03*
%TD*%
D18*
%TO.C,D16*%
X62230000Y-61150000D03*
D19*
X62230000Y-53530000D03*
%TD*%
D18*
%TO.C,D45*%
X76517500Y-99250000D03*
D19*
X76517500Y-91630000D03*
%TD*%
D18*
%TO.C,D49*%
X152717500Y-99250000D03*
D19*
X152717500Y-91630000D03*
%TD*%
D18*
%TO.C,D17*%
X81280000Y-61150000D03*
D19*
X81280000Y-53530000D03*
%TD*%
D18*
%TO.C,D4*%
X105092500Y-42100000D03*
D19*
X105092500Y-34480000D03*
%TD*%
D18*
%TO.C,D76*%
X259873800Y-137350000D03*
D19*
X259873800Y-129730000D03*
%TD*%
D18*
%TO.C,D30*%
X71755000Y-80200000D03*
D19*
X71755000Y-72580000D03*
%TD*%
D18*
%TO.C,D38*%
X224155000Y-80200000D03*
D19*
X224155000Y-72580000D03*
%TD*%
D18*
%TO.C,D48*%
X133667500Y-99250000D03*
D19*
X133667500Y-91630000D03*
%TD*%
D18*
%TO.C,D21*%
X157480000Y-61150000D03*
D19*
X157480000Y-53530000D03*
%TD*%
D18*
%TO.C,D43*%
X378700000Y-61920000D03*
D19*
X378700000Y-54300000D03*
%TD*%
D18*
%TO.C,D47*%
X114617500Y-99250000D03*
D19*
X114617500Y-91630000D03*
%TD*%
D18*
%TO.C,D13*%
X281305000Y-42100000D03*
D19*
X281305000Y-34480000D03*
%TD*%
D18*
%TO.C,D58*%
X55086300Y-118300000D03*
D19*
X55086300Y-110680000D03*
%TD*%
D18*
%TO.C,D71*%
X45561300Y-137350000D03*
D19*
X45561300Y-129730000D03*
%TD*%
D18*
%TO.C,D10*%
X224155000Y-42100000D03*
D19*
X224155000Y-34480000D03*
%TD*%
D18*
%TO.C,D78*%
X309880000Y-137350000D03*
D19*
X309880000Y-129730000D03*
%TD*%
D18*
%TO.C,D7*%
X162242500Y-42100000D03*
D19*
X162242500Y-34480000D03*
%TD*%
D18*
%TO.C,D27*%
X271780000Y-61150000D03*
D19*
X271780000Y-53530000D03*
%TD*%
D18*
%TO.C,D31*%
X90805000Y-80200000D03*
D19*
X90805000Y-72580000D03*
%TD*%
D18*
%TO.C,D46*%
X95567500Y-99250000D03*
D19*
X95567500Y-91630000D03*
%TD*%
D18*
%TO.C,D50*%
X171767500Y-99250000D03*
D19*
X171767500Y-91630000D03*
%TD*%
D18*
%TO.C,D18*%
X100330000Y-61150000D03*
D19*
X100330000Y-53530000D03*
%TD*%
D18*
%TO.C,D65*%
X200342500Y-118300000D03*
D19*
X200342500Y-110680000D03*
%TD*%
D18*
%TO.C,D33*%
X128905000Y-80200000D03*
D19*
X128905000Y-72580000D03*
%TD*%
D18*
%TO.C,D34*%
X147955000Y-80200000D03*
D19*
X147955000Y-72580000D03*
%TD*%
D18*
%TO.C,D8*%
X186055000Y-42100000D03*
D19*
X186055000Y-34480000D03*
%TD*%
D18*
%TO.C,D5*%
X124142500Y-42100000D03*
D19*
X124142500Y-34480000D03*
%TD*%
D18*
%TO.C,D25*%
X233680000Y-61150000D03*
D19*
X233680000Y-53530000D03*
%TD*%
D18*
%TO.C,D73*%
X93186300Y-137350000D03*
D19*
X93186300Y-129730000D03*
%TD*%
D18*
%TO.C,D75*%
X236061300Y-137350000D03*
D19*
X236061300Y-129730000D03*
%TD*%
D18*
%TO.C,D59*%
X86042500Y-118300000D03*
D19*
X86042500Y-110680000D03*
%TD*%
D18*
%TO.C,D79*%
X328930000Y-137350000D03*
D19*
X328930000Y-129730000D03*
%TD*%
D18*
%TO.C,D80*%
X347980000Y-137350000D03*
D19*
X347980000Y-129730000D03*
%TD*%
D18*
%TO.C,D9*%
X205105000Y-42100000D03*
D19*
X205105000Y-34480000D03*
%TD*%
D18*
%TO.C,D68*%
X257492500Y-118300000D03*
D19*
X257492500Y-110680000D03*
%TD*%
D18*
%TO.C,D64*%
X181292500Y-118300000D03*
D19*
X181292500Y-110680000D03*
%TD*%
D18*
%TO.C,D55*%
X267017500Y-99250000D03*
D19*
X267017500Y-91630000D03*
%TD*%
D18*
%TO.C,D39*%
X243205000Y-80200000D03*
D19*
X243205000Y-72580000D03*
%TD*%
D18*
%TO.C,D40*%
X262255000Y-80200000D03*
D19*
X262255000Y-72580000D03*
%TD*%
D18*
%TO.C,D28*%
X300355000Y-61150000D03*
D19*
X300355000Y-53530000D03*
%TD*%
D18*
%TO.C,D35*%
X167005000Y-80200000D03*
D19*
X167005000Y-72580000D03*
%TD*%
D18*
%TO.C,D1*%
X43180000Y-42100000D03*
D19*
X43180000Y-34480000D03*
%TD*%
D18*
%TO.C,D37*%
X205105000Y-80200000D03*
D19*
X205105000Y-72580000D03*
%TD*%
D18*
%TO.C,D6*%
X143192500Y-42100000D03*
D19*
X143192500Y-34480000D03*
%TD*%
D18*
%TO.C,D57*%
X378700000Y-80970000D03*
D19*
X378700000Y-73350000D03*
%TD*%
D18*
%TO.C,D61*%
X124142500Y-118300000D03*
D19*
X124142500Y-110680000D03*
%TD*%
D18*
%TO.C,D23*%
X195580000Y-61150000D03*
D19*
X195580000Y-53530000D03*
%TD*%
D18*
%TO.C,D11*%
X243205000Y-42100000D03*
D19*
X243205000Y-34480000D03*
%TD*%
D18*
%TO.C,D36*%
X186055000Y-80200000D03*
D19*
X186055000Y-72580000D03*
%TD*%
D18*
%TO.C,D60*%
X105092500Y-118300000D03*
D19*
X105092500Y-110680000D03*
%TD*%
D18*
%TO.C,D2*%
X66992500Y-42100000D03*
D19*
X66992500Y-34480000D03*
%TD*%
D18*
%TO.C,D63*%
X162242500Y-118300000D03*
D19*
X162242500Y-110680000D03*
%TD*%
D18*
%TO.C,D70*%
X328930000Y-118300000D03*
D19*
X328930000Y-110680000D03*
%TD*%
D18*
%TO.C,D62*%
X143192500Y-118300000D03*
D19*
X143192500Y-110680000D03*
%TD*%
D18*
%TO.C,D42*%
X305117500Y-80200000D03*
D19*
X305117500Y-72580000D03*
%TD*%
D18*
%TO.C,D29*%
X47942500Y-80200000D03*
D19*
X47942500Y-72580000D03*
%TD*%
D18*
%TO.C,D44*%
X50323800Y-99250000D03*
D19*
X50323800Y-91630000D03*
%TD*%
D18*
%TO.C,D67*%
X238442500Y-118300000D03*
D19*
X238442500Y-110680000D03*
%TD*%
D18*
%TO.C,D32*%
X109855000Y-80200000D03*
D19*
X109855000Y-72580000D03*
%TD*%
D18*
%TO.C,D3*%
X86042500Y-42100000D03*
D19*
X86042500Y-34480000D03*
%TD*%
D18*
%TO.C,D14*%
X309880000Y-42100000D03*
D19*
X309880000Y-34480000D03*
%TD*%
D18*
%TO.C,D12*%
X262255000Y-42100000D03*
D19*
X262255000Y-34480000D03*
%TD*%
D18*
%TO.C,D41*%
X281305000Y-80200000D03*
D19*
X281305000Y-72580000D03*
%TD*%
D18*
%TO.C,D72*%
X69373800Y-137350000D03*
D19*
X69373800Y-129730000D03*
%TD*%
D18*
%TO.C,D74*%
X164623800Y-137350000D03*
D19*
X164623800Y-129730000D03*
%TD*%
D18*
%TO.C,D53*%
X228917500Y-99250000D03*
D19*
X228917500Y-91630000D03*
%TD*%
D18*
%TO.C,D77*%
X283686300Y-137350000D03*
D19*
X283686300Y-129730000D03*
%TD*%
M02*
