M48
; DRILL file KiCad 10.0.1 date 2026-05-17T00:50:35
; FORMAT={-:-/ absolute / metric / decimal}
; #@! TF.CreationDate,2026-05-17T00:50:35+05:30
; #@! TF.GenerationSoftware,Kicad,Pcbnew,10.0.1
; #@! TF.FileFunction,Plated,1,2,PTH
FMAT,2
METRIC
; #@! TA.AperFunction,Plated,PTH,ViaDrill
T1C0.300
; #@! TA.AperFunction,Plated,PTH,ComponentDrill
T2C0.800
; #@! TA.AperFunction,Plated,PTH,ComponentDrill
T3C1.000
; #@! TA.AperFunction,Plated,PTH,ComponentDrill
T4C1.500
%
G90
G05
T1
X79.355Y-86.838
X116.801Y-83.177
X275.949Y-47.411
X304.082Y-70.5
X310.015Y-116.338
X334.024Y-49.976
X368.332Y-70.5
X371.54Y-55.335
T2
X43.18Y-34.48
X43.18Y-42.1
X43.18Y-53.53
X43.18Y-61.15
X45.561Y-129.73
X45.561Y-137.35
X47.942Y-72.58
X47.942Y-80.2
X50.324Y-91.63
X50.324Y-99.25
X55.086Y-110.68
X55.086Y-118.3
X62.23Y-53.53
X62.23Y-61.15
X66.992Y-34.48
X66.992Y-42.1
X69.374Y-129.73
X69.374Y-137.35
X71.755Y-72.58
X71.755Y-80.2
X76.517Y-91.63
X76.517Y-99.25
X81.28Y-53.53
X81.28Y-61.15
X86.042Y-34.48
X86.042Y-42.1
X86.042Y-110.68
X86.042Y-118.3
X90.805Y-72.58
X90.805Y-80.2
X93.186Y-129.73
X93.186Y-137.35
X95.567Y-91.63
X95.567Y-99.25
X100.33Y-53.53
X100.33Y-61.15
X105.093Y-34.48
X105.093Y-42.1
X105.093Y-110.68
X105.093Y-118.3
X109.855Y-72.58
X109.855Y-80.2
X114.617Y-91.63
X114.617Y-99.25
X119.38Y-53.53
X119.38Y-61.15
X124.142Y-34.48
X124.142Y-42.1
X124.142Y-110.68
X124.142Y-118.3
X128.905Y-72.58
X128.905Y-80.2
X133.667Y-91.63
X133.667Y-99.25
X138.43Y-53.53
X138.43Y-61.15
X143.192Y-34.48
X143.192Y-42.1
X143.192Y-110.68
X143.192Y-118.3
X147.955Y-72.58
X147.955Y-80.2
X152.718Y-91.63
X152.718Y-99.25
X157.48Y-53.53
X157.48Y-61.15
X162.243Y-34.48
X162.243Y-42.1
X162.243Y-110.68
X162.243Y-118.3
X164.624Y-129.73
X164.624Y-137.35
X167.005Y-72.58
X167.005Y-80.2
X171.767Y-91.63
X171.767Y-99.25
X176.53Y-53.53
X176.53Y-61.15
X181.292Y-110.68
X181.292Y-118.3
X186.055Y-34.48
X186.055Y-42.1
X186.055Y-72.58
X186.055Y-80.2
X190.817Y-91.63
X190.817Y-99.25
X195.58Y-53.53
X195.58Y-61.15
X200.343Y-110.68
X200.343Y-118.3
X205.105Y-34.48
X205.105Y-42.1
X205.105Y-72.58
X205.105Y-80.2
X209.867Y-91.63
X209.867Y-99.25
X214.63Y-53.53
X214.63Y-61.15
X219.392Y-110.68
X219.392Y-118.3
X224.155Y-34.48
X224.155Y-42.1
X224.155Y-72.58
X224.155Y-80.2
X228.917Y-91.63
X228.917Y-99.25
X233.68Y-53.53
X233.68Y-61.15
X236.061Y-129.73
X236.061Y-137.35
X238.442Y-110.68
X238.442Y-118.3
X243.205Y-34.48
X243.205Y-42.1
X243.205Y-72.58
X243.205Y-80.2
X247.968Y-91.63
X247.968Y-99.25
X252.73Y-53.53
X252.73Y-61.15
X257.493Y-110.68
X257.493Y-118.3
X259.874Y-129.73
X259.874Y-137.35
X262.255Y-34.48
X262.255Y-42.1
X262.255Y-72.58
X262.255Y-80.2
X267.017Y-91.63
X267.017Y-99.25
X271.78Y-53.53
X271.78Y-61.15
X281.305Y-34.48
X281.305Y-42.1
X281.305Y-72.58
X281.305Y-80.2
X283.686Y-129.73
X283.686Y-137.35
X293.211Y-110.68
X293.211Y-118.3
X297.974Y-91.63
X297.974Y-99.25
X300.355Y-53.53
X300.355Y-61.15
X305.118Y-72.58
X305.118Y-80.2
X309.88Y-34.48
X309.88Y-42.1
X309.88Y-129.73
X309.88Y-137.35
X328.93Y-110.68
X328.93Y-118.3
X328.93Y-129.73
X328.93Y-137.35
X347.98Y-129.73
X347.98Y-137.35
X378.7Y-54.3
X378.7Y-61.92
X378.7Y-73.35
X378.7Y-80.97
T3
X317.46Y-64.0
X320.0Y-64.0
X322.54Y-64.0
X325.08Y-64.0
X335.5Y-38.76
X335.5Y-41.3
X335.5Y-43.84
X335.5Y-46.38
X335.5Y-48.92
X335.5Y-51.46
X335.5Y-54.0
X335.5Y-56.54
X335.5Y-59.08
X335.5Y-61.62
X335.5Y-64.16
X335.5Y-66.7
X335.5Y-69.24
X335.5Y-71.78
X335.5Y-74.32
X335.5Y-76.86
X335.5Y-79.4
X335.5Y-81.94
X335.5Y-84.48
X335.5Y-87.02
X353.28Y-38.76
X353.28Y-41.3
X353.28Y-43.84
X353.28Y-46.38
X353.28Y-48.92
X353.28Y-51.46
X353.28Y-54.0
X353.28Y-56.54
X353.28Y-59.08
X353.28Y-61.62
X353.28Y-64.16
X353.28Y-66.7
X353.28Y-69.24
X353.28Y-71.78
X353.28Y-74.32
X353.28Y-76.86
X353.28Y-79.4
X353.28Y-81.94
X353.28Y-84.48
X353.28Y-87.02
X364.0Y-39.1
X364.0Y-41.6
X364.0Y-44.1
X378.5Y-39.1
X378.5Y-44.1
T4
X31.75Y-40.64
X31.75Y-59.69
X34.131Y-135.89
X36.512Y-78.74
X38.1Y-38.1
X38.1Y-57.15
X38.894Y-97.79
X40.481Y-133.35
X42.862Y-76.2
X43.656Y-116.84
X45.244Y-95.25
X50.006Y-114.3
X50.8Y-59.69
X55.562Y-40.64
X57.15Y-57.15
X57.944Y-135.89
X60.325Y-78.74
X61.912Y-38.1
X64.294Y-133.35
X65.087Y-97.79
X66.675Y-76.2
X69.85Y-59.69
X71.438Y-95.25
X74.612Y-40.64
X74.612Y-116.84
X76.2Y-57.15
X79.375Y-78.74
X80.962Y-38.1
X80.962Y-114.3
X81.756Y-135.89
X84.138Y-97.79
X85.725Y-76.2
X88.106Y-133.35
X88.9Y-59.69
X90.487Y-95.25
X93.662Y-40.64
X93.662Y-116.84
X95.25Y-57.15
X98.425Y-78.74
X100.012Y-38.1
X100.012Y-114.3
X103.188Y-97.79
X104.775Y-76.2
X107.95Y-59.69
X109.537Y-95.25
X112.712Y-40.64
X112.712Y-116.84
X114.3Y-57.15
X117.475Y-78.74
X119.062Y-38.1
X119.062Y-114.3
X122.237Y-97.79
X123.825Y-76.2
X127.0Y-59.69
X128.588Y-95.25
X131.762Y-40.64
X131.762Y-116.84
X133.35Y-57.15
X136.525Y-78.74
X138.112Y-38.1
X138.112Y-114.3
X141.287Y-97.79
X142.875Y-76.2
X146.05Y-59.69
X147.637Y-95.25
X150.812Y-40.64
X150.812Y-116.84
X152.4Y-57.15
X153.194Y-135.89
X155.575Y-78.74
X157.162Y-38.1
X157.162Y-114.3
X159.544Y-133.35
X160.338Y-97.79
X161.925Y-76.2
X165.1Y-59.69
X166.688Y-95.25
X169.862Y-116.84
X171.45Y-57.15
X174.625Y-40.64
X174.625Y-78.74
X176.213Y-114.3
X179.387Y-97.79
X180.975Y-38.1
X180.975Y-76.2
X184.15Y-59.69
X185.737Y-95.25
X188.912Y-116.84
X190.5Y-57.15
X193.675Y-40.64
X193.675Y-78.74
X195.262Y-114.3
X198.438Y-97.79
X200.025Y-38.1
X200.025Y-76.2
X203.2Y-59.69
X204.787Y-95.25
X207.962Y-116.84
X209.55Y-57.15
X212.725Y-40.64
X212.725Y-78.74
X214.312Y-114.3
X217.487Y-97.79
X219.075Y-38.1
X219.075Y-76.2
X222.25Y-59.69
X223.837Y-95.25
X224.631Y-135.89
X227.012Y-116.84
X228.6Y-57.15
X230.981Y-133.35
X231.775Y-40.64
X231.775Y-78.74
X233.362Y-114.3
X236.537Y-97.79
X238.125Y-38.1
X238.125Y-76.2
X241.3Y-59.69
X242.887Y-95.25
X246.062Y-116.84
X247.65Y-57.15
X248.444Y-135.89
X250.825Y-40.64
X250.825Y-78.74
X252.412Y-114.3
X254.794Y-133.35
X255.587Y-97.79
X257.175Y-38.1
X257.175Y-76.2
X260.35Y-59.69
X261.938Y-95.25
X266.7Y-57.15
X269.875Y-40.64
X269.875Y-78.74
X272.256Y-135.89
X276.225Y-38.1
X276.225Y-76.2
X278.606Y-133.35
X281.781Y-116.84
X286.544Y-97.79
X288.131Y-114.3
X288.925Y-59.69
X292.894Y-95.25
X293.688Y-78.74
X295.275Y-57.15
X298.45Y-40.64
X298.45Y-135.89
X300.037Y-76.2
X304.8Y-38.1
X304.8Y-133.35
X317.5Y-116.84
X317.5Y-135.89
X323.85Y-114.3
X323.85Y-133.35
X336.55Y-135.89
X342.9Y-133.35
X367.27Y-60.46
X367.27Y-79.51
X373.62Y-57.92
X373.62Y-76.97
T4
G00X370.85Y-36.0
M15
G01X372.15Y-36.0
M16
G05
G00X370.85Y-47.2
M15
G01X372.15Y-47.2
M16
G05
M30
