M48
; DRILL file KiCad 10.0.1 date 2026-05-17T00:50:35
; FORMAT={-:-/ absolute / metric / decimal}
; #@! TF.CreationDate,2026-05-17T00:50:35+05:30
; #@! TF.GenerationSoftware,Kicad,Pcbnew,10.0.1
; #@! TF.FileFunction,NonPlated,1,2,NPTH
FMAT,2
METRIC
; #@! TA.AperFunction,NonPlated,NPTH,ComponentDrill
T1C1.700
; #@! TA.AperFunction,NonPlated,NPTH,ComponentDrill
T2C4.000
%
G90
G05
T1
X30.48Y-43.18
X30.48Y-62.23
X32.861Y-138.43
X35.242Y-81.28
X37.624Y-100.33
X40.64Y-43.18
X40.64Y-62.23
X42.386Y-119.38
X43.021Y-138.43
X45.402Y-81.28
X47.784Y-100.33
X49.53Y-62.23
X52.546Y-119.38
X54.292Y-43.18
X56.674Y-138.43
X59.055Y-81.28
X59.69Y-62.23
X63.817Y-100.33
X64.453Y-43.18
X66.834Y-138.43
X68.58Y-62.23
X69.215Y-81.28
X73.343Y-43.18
X73.343Y-119.38
X73.977Y-100.33
X78.105Y-81.28
X78.74Y-62.23
X80.486Y-138.43
X82.867Y-100.33
X83.502Y-43.18
X83.502Y-119.38
X87.63Y-62.23
X88.265Y-81.28
X90.646Y-138.43
X92.392Y-43.18
X92.392Y-119.38
X93.027Y-100.33
X97.155Y-81.28
X97.79Y-62.23
X101.917Y-100.33
X102.552Y-43.18
X102.552Y-119.38
X106.68Y-62.23
X107.315Y-81.28
X111.442Y-43.18
X111.442Y-119.38
X112.078Y-100.33
X116.205Y-81.28
X116.84Y-62.23
X120.968Y-100.33
X121.602Y-43.18
X121.602Y-119.38
X125.73Y-62.23
X126.365Y-81.28
X130.493Y-43.18
X130.493Y-119.38
X131.127Y-100.33
X135.255Y-81.28
X135.89Y-62.23
X140.017Y-100.33
X140.653Y-43.18
X140.653Y-119.38
X144.78Y-62.23
X145.415Y-81.28
X149.542Y-43.18
X149.542Y-119.38
X150.177Y-100.33
X151.924Y-138.43
X154.305Y-81.28
X154.94Y-62.23
X159.067Y-100.33
X159.702Y-43.18
X159.702Y-119.38
X162.084Y-138.43
X163.83Y-62.23
X164.465Y-81.28
X168.593Y-119.38
X169.227Y-100.33
X173.355Y-43.18
X173.355Y-81.28
X173.99Y-62.23
X178.117Y-100.33
X178.752Y-119.38
X182.88Y-62.23
X183.515Y-43.18
X183.515Y-81.28
X187.642Y-119.38
X188.278Y-100.33
X192.405Y-43.18
X192.405Y-81.28
X193.04Y-62.23
X197.167Y-100.33
X197.802Y-119.38
X201.93Y-62.23
X202.565Y-43.18
X202.565Y-81.28
X206.692Y-119.38
X207.327Y-100.33
X211.455Y-43.18
X211.455Y-81.28
X212.09Y-62.23
X216.218Y-100.33
X216.852Y-119.38
X220.98Y-62.23
X221.615Y-43.18
X221.615Y-81.28
X223.361Y-138.43
X225.742Y-119.38
X226.377Y-100.33
X230.505Y-43.18
X230.505Y-81.28
X231.14Y-62.23
X233.521Y-138.43
X235.267Y-100.33
X235.903Y-119.38
X240.03Y-62.23
X240.665Y-43.18
X240.665Y-81.28
X244.792Y-119.38
X245.427Y-100.33
X247.174Y-138.43
X249.555Y-43.18
X249.555Y-81.28
X250.19Y-62.23
X254.317Y-100.33
X254.952Y-119.38
X257.334Y-138.43
X259.08Y-62.23
X259.715Y-43.18
X259.715Y-81.28
X264.477Y-100.33
X268.605Y-43.18
X268.605Y-81.28
X269.24Y-62.23
X270.986Y-138.43
X278.765Y-43.18
X278.765Y-81.28
X280.511Y-119.38
X281.146Y-138.43
X285.274Y-100.33
X287.655Y-62.23
X290.671Y-119.38
X292.417Y-81.28
X295.434Y-100.33
X297.18Y-43.18
X297.18Y-138.43
X297.815Y-62.23
X302.577Y-81.28
X307.34Y-43.18
X307.34Y-138.43
X316.23Y-119.38
X316.23Y-138.43
X326.39Y-119.38
X326.39Y-138.43
X335.28Y-138.43
X345.44Y-138.43
X366.0Y-63.0
X366.0Y-82.05
X376.16Y-63.0
X376.16Y-82.05
T2
X35.56Y-43.18
X35.56Y-62.23
X37.941Y-138.43
X40.322Y-81.28
X42.704Y-100.33
X47.466Y-119.38
X54.61Y-62.23
X59.372Y-43.18
X61.754Y-138.43
X64.135Y-81.28
X68.897Y-100.33
X73.66Y-62.23
X78.422Y-43.18
X78.422Y-119.38
X83.185Y-81.28
X85.566Y-138.43
X87.947Y-100.33
X92.71Y-62.23
X97.472Y-43.18
X97.472Y-119.38
X102.235Y-81.28
X106.997Y-100.33
X111.76Y-62.23
X116.522Y-43.18
X116.522Y-119.38
X121.285Y-81.28
X126.047Y-100.33
X130.81Y-62.23
X135.572Y-43.18
X135.572Y-119.38
X140.335Y-81.28
X145.097Y-100.33
X149.86Y-62.23
X154.623Y-43.18
X154.623Y-119.38
X157.004Y-138.43
X159.385Y-81.28
X164.147Y-100.33
X168.91Y-62.23
X173.672Y-119.38
X178.435Y-43.18
X178.435Y-81.28
X183.197Y-100.33
X187.96Y-62.23
X192.722Y-119.38
X197.485Y-43.18
X197.485Y-81.28
X202.248Y-100.33
X207.01Y-62.23
X211.772Y-119.38
X216.535Y-43.18
X216.535Y-81.28
X221.297Y-100.33
X226.06Y-62.23
X228.441Y-138.43
X230.822Y-119.38
X235.585Y-43.18
X235.585Y-81.28
X240.347Y-100.33
X245.11Y-62.23
X249.873Y-119.38
X252.254Y-138.43
X254.635Y-43.18
X254.635Y-81.28
X259.397Y-100.33
X264.16Y-62.23
X273.685Y-43.18
X273.685Y-81.28
X276.066Y-138.43
X285.591Y-119.38
X290.354Y-100.33
X292.735Y-62.23
X297.498Y-81.28
X302.26Y-43.18
X302.26Y-138.43
X321.31Y-119.38
X321.31Y-138.43
X340.36Y-138.43
X371.08Y-63.0
X371.08Y-82.05
M30
